<svg width="40" height="40" viewBox="0 0 40 40" fill="none" xmlns="http://www.w3.org/2000/svg">
<path d="M7.5 35H6.66667V35.8333H7.5V35ZM32.5 35V35.8333H33.3333V35H32.5ZM32.5 15L33.0206 14.3493L33.0206 14.3493L32.5 15ZM20 5L20.5206 4.34928L20 3.93282L19.4794 4.34927L20 5ZM3.33301 18.3333L2.81243 17.6826C2.45305 17.9701 2.39477 18.4945 2.68227 18.8539C2.96977 19.2133 3.49417 19.2716 3.85356 18.9841L3.33301 18.3333ZM36.6663 18.3333L36.1458 18.9841C36.5051 19.2716 37.0295 19.2133 37.3171 18.8539C37.6046 18.4946 37.5463 17.9701 37.1869 17.6826L36.6663 18.3333ZM15.833 24.167V23.3337C15.3728 23.3337 14.9997 23.7068 14.9997 24.167H15.833ZM15.833 35.0003H14.9997C14.9997 35.4606 15.3728 35.8337 15.833 35.8337V35.0003ZM24.1663 35.0003V35.8337C24.6266 35.8337 24.9997 35.4606 24.9997 35.0003H24.1663ZM24.1663 24.167H24.9997C24.9997 23.7068 24.6266 23.3337 24.1663 23.3337V24.167ZM6.66667 15V35H8.33333V15H6.66667ZM7.5 35.8333H32.5V34.1667H7.5V35.8333ZM33.3333 35V15H31.6667V35H33.3333ZM33.0206 14.3493L20.5206 4.34928L19.4794 5.65072L31.9794 15.6507L33.0206 14.3493ZM19.4794 4.34928L6.97942 14.3493L8.02058 15.6507L20.5206 5.65072L19.4794 4.34928ZM6.97945 14.3493L2.81245 17.6826L3.85356 18.9841L8.02055 15.6507L6.97945 14.3493ZM3.85358 18.9841L20.5206 5.65073L19.4794 4.34927L2.81243 17.6826L3.85358 18.9841ZM19.4794 5.65072L36.1458 18.9841L37.1869 17.6826L20.5206 4.34928L19.4794 5.65072ZM37.1869 17.6826L33.0206 14.3493L31.9794 15.6507L36.1457 18.984L37.1869 17.6826ZM14.9997 24.167V35.0003H16.6663V24.167H14.9997ZM15.833 35.8337H24.1663V34.167H15.833V35.8337ZM24.9997 35.0003V24.167H23.333V35.0003H24.9997ZM24.1663 23.3337H15.833V25.0003H24.1663V23.3337Z" fill="#8494A1"/>
</svg>
