<svg width="32" height="33" viewBox="0 0 32 33" fill="none" xmlns="http://www.w3.org/2000/svg">
<rect x="0.5" y="1.10187" width="31" height="31" rx="7.5" fill="white"/>
<path d="M7.35625 16.2081L14.1063 9.45808C14.158 9.40637 14.2193 9.36535 14.2869 9.33737C14.3545 9.30939 14.4269 9.29498 14.5 9.29498C14.5731 9.29498 14.6455 9.30939 14.7131 9.33737C14.7807 9.36535 14.842 9.40637 14.8938 9.45808C14.9455 9.50979 14.9865 9.57117 15.0145 9.63873C15.0424 9.70629 15.0568 9.7787 15.0568 9.85183C15.0568 9.92495 15.0424 9.99737 15.0145 10.0649C14.9865 10.1325 14.9455 10.1939 14.8938 10.2456L9.10938 16.0393L24.25 16.0393C24.3992 16.0393 24.5423 16.0986 24.6477 16.2041C24.7532 16.3096 24.8125 16.4526 24.8125 16.6018C24.8125 16.751 24.7532 16.8941 24.6477 16.9996C24.5423 17.1051 24.3992 17.1643 24.25 17.1643L9.10938 17.1643L14.8937 22.9581C14.9982 23.0625 15.0568 23.2041 15.0568 23.3518C15.0568 23.4995 14.9982 23.6411 14.8937 23.7456C14.7893 23.85 14.6477 23.9087 14.5 23.9087C14.3523 23.9087 14.2107 23.85 14.1063 23.7456L7.35625 16.9956C7.30293 16.9448 7.26047 16.8837 7.23147 16.816C7.20246 16.7483 7.1875 16.6755 7.1875 16.6018C7.1875 16.5282 7.20246 16.4553 7.23147 16.3876C7.26047 16.32 7.30293 16.2589 7.35625 16.2081Z" fill="#8494A1"/>
<rect x="0.5" y="1.10187" width="31" height="31" rx="7.5" stroke="#8494A1"/>
</svg>
