<svg width="30" height="14" viewBox="0 0 30 14" fill="none" xmlns="http://www.w3.org/2000/svg">
<path d="M2.835 6.94V11H1.197V0.92H4.165C4.82767 0.92 5.397 0.987666 5.873 1.123C6.35367 1.25833 6.748 1.452 7.056 1.704C7.364 1.95133 7.59033 2.25 7.735 2.6C7.88433 2.95 7.959 3.33967 7.959 3.769C7.959 4.119 7.90533 4.44567 7.798 4.749C7.69533 5.05233 7.54367 5.32767 7.343 5.575C7.147 5.82233 6.902 6.037 6.608 6.219C6.31867 6.401 5.98967 6.54333 5.621 6.646C5.82633 6.76733 6.00133 6.93767 6.146 7.157L8.869 11H7.406C7.11667 11 6.90667 10.888 6.776 10.664L4.424 7.269C4.34467 7.15233 4.25833 7.06833 4.165 7.017C4.07167 6.96567 3.93167 6.94 3.745 6.94H2.835ZM2.835 5.75H4.123C4.49633 5.75 4.823 5.70567 5.103 5.617C5.383 5.52367 5.61633 5.39533 5.803 5.232C5.98967 5.06867 6.12967 4.875 6.223 4.651C6.31633 4.42233 6.363 4.17033 6.363 3.895C6.363 3.34433 6.181 2.92433 5.817 2.635C5.453 2.34567 4.90233 2.201 4.165 2.201H2.835V5.75ZM14.0597 9.677C14.4471 9.677 14.7924 9.61167 15.0957 9.481C15.4037 9.35033 15.6627 9.16833 15.8727 8.935C16.0874 8.70167 16.2507 8.42167 16.3627 8.095C16.4747 7.76367 16.5307 7.39733 16.5307 6.996V0.92H18.1617V6.996C18.1617 7.58867 18.0661 8.137 17.8747 8.641C17.6881 9.145 17.4174 9.58133 17.0627 9.95C16.7081 10.314 16.2764 10.601 15.7677 10.811C15.2637 11.0163 14.6944 11.119 14.0597 11.119C13.4251 11.119 12.8534 11.0163 12.3447 10.811C11.8407 10.601 11.4114 10.314 11.0567 9.95C10.7021 9.58133 10.4291 9.145 10.2377 8.641C10.0511 8.137 9.95772 7.58867 9.95772 6.996V0.92H11.5957V6.989C11.5957 7.39033 11.6517 7.75667 11.7637 8.088C11.8757 8.41467 12.0367 8.697 12.2467 8.935C12.4567 9.16833 12.7134 9.35033 13.0167 9.481C13.3247 9.61167 13.6724 9.677 14.0597 9.677Z" fill="#212121"/>
<path fill-rule="evenodd" clip-rule="evenodd" d="M24 5.5H30L27 8.5L24 5.5Z" fill="#212121"/>
</svg>
