<svg width="40" height="40" viewBox="0 0 40 40" fill="none" xmlns="http://www.w3.org/2000/svg">
<path d="M8.33301 15.0003C8.79325 15.0003 9.16634 14.6272 9.16634 14.167C9.16634 13.7068 8.79325 13.3337 8.33301 13.3337V15.0003ZM3.33301 14.167V13.3337C2.87277 13.3337 2.49967 13.7068 2.49967 14.167H3.33301ZM3.33301 35.8337H2.49967C2.49967 36.2939 2.87277 36.667 3.33301 36.667V35.8337ZM36.6663 35.8337V36.667C37.1266 36.667 37.4997 36.2939 37.4997 35.8337H36.6663ZM36.6663 14.167H37.4997C37.4997 13.7068 37.1266 13.3337 36.6663 13.3337V14.167ZM31.6663 13.3337C31.2061 13.3337 30.833 13.7068 30.833 14.167C30.833 14.6272 31.2061 15.0003 31.6663 15.0003V13.3337ZM31.6663 4.16699H32.4997V3.33366H31.6663V4.16699ZM8.33301 4.16699V3.33366H7.49967V4.16699H8.33301ZM19.9997 26.667L19.4997 27.3337L19.9997 27.7087L20.4997 27.3337L19.9997 26.667ZM16.4223 14.4107C16.0968 14.0853 15.5692 14.0853 15.2438 14.4107C14.9183 14.7362 14.9183 15.2638 15.2438 15.5893L16.4223 14.4107ZM19.9997 19.1667L19.4104 19.7559C19.7359 20.0814 20.2635 20.0814 20.5889 19.7559L19.9997 19.1667ZM24.7556 15.5893C25.081 15.2638 25.081 14.7362 24.7556 14.4107C24.4302 14.0853 23.9025 14.0853 23.5771 14.4107L24.7556 15.5893ZM20.833 10C20.833 9.53976 20.4599 9.16667 19.9997 9.16667C19.5394 9.16667 19.1663 9.53976 19.1663 10H20.833ZM8.33301 13.3337H3.33301V15.0003H8.33301V13.3337ZM2.49967 14.167V35.8337H4.16634V14.167H2.49967ZM3.33301 36.667H36.6663V35.0003H3.33301V36.667ZM37.4997 35.8337V14.167H35.833V35.8337H37.4997ZM36.6663 13.3337H31.6663V15.0003H36.6663V13.3337ZM31.6663 3.33366H8.33301V5.00033H31.6663V3.33366ZM7.49967 4.16699V17.917H9.16634V4.16699H7.49967ZM7.83301 18.5837L19.4997 27.3337L20.4997 26.0003L8.83301 17.2503L7.83301 18.5837ZM20.4997 27.3337L32.1663 18.5837L31.1663 17.2503L19.4997 26.0003L20.4997 27.3337ZM32.4997 17.917V4.16699H30.833V17.917H32.4997ZM8.83301 17.2503L3.83301 13.5003L2.83301 14.8337L7.83301 18.5837L8.83301 17.2503ZM32.1663 18.5837L37.1663 14.8337L36.1663 13.5003L31.1663 17.2503L32.1663 18.5837ZM15.2438 15.5893L19.4104 19.7559L20.5889 18.5774L16.4223 14.4107L15.2438 15.5893ZM20.5889 19.7559L24.7556 15.5893L23.5771 14.4107L19.4104 18.5774L20.5889 19.7559ZM20.833 19.1667V10H19.1663V19.1667H20.833Z" fill="#8494A1"/>
</svg>
